<?xml version="1.0" encoding="iso-8859-1"?>
<!-- Generator: Adobe Illustrator 19.0.0, SVG Export Plug-In . SVG Version: 6.00 Build 0)  -->
<svg version="1.1" id="Capa_1" xmlns="http://www.w3.org/2000/svg" xmlns:xlink="http://www.w3.org/1999/xlink" x="0px" y="0px"
	 viewBox="0 0 496 496" style="enable-background:new 0 0 496 496;" xml:space="preserve">
<g>
	<polygon style="fill:#FFA64D;" points="424,120 336,120 336,72 424,72 440,96 	"/>
	<polygon style="fill:#FFA64D;" points="72,120 160,120 160,72 72,72 56,96 	"/>
</g>
<g>
	<path style="fill:#333333;" d="M160,264c-13.232,0-24-10.768-24-24h-16c0,22.056,17.944,40,40,40s40-17.944,40-40h-16
		C184,253.232,173.232,264,160,264z"/>
	<path style="fill:#333333;" d="M336,264c-13.232,0-24-10.768-24-24h-16c0,22.056,17.944,40,40,40s40-17.944,40-40h-16
		C360,253.232,349.232,264,336,264z"/>
	<path style="fill:#333333;" d="M480,240c0-28.152-20.904-51.456-48-55.36V176c0-17.936-26.472-31.448-78.68-40.16l-2.632,15.784
		C404.912,160.672,416,173.16,416,176c0,10.856-59.296,32-168,32S80,186.856,80,176c0-2.84,11.088-15.328,65.32-24.376
		l-2.632-15.784C90.472,144.552,64,158.064,64,176v8.64c-27.096,3.904-48,27.208-48,55.36c0,28.216,21,51.568,48.184,55.392
		C66.96,365.048,108.6,424.872,168,453.672V496h16v-35.496C203.944,467.928,225.504,472,248,472s44.056-4.072,64-11.496V496h16
		v-42.328c59.4-28.8,101.04-88.624,103.816-158.288C459,291.568,480,268.216,480,240z M32,240c0-19.312,13.768-35.472,32-39.192
		v78.384C45.768,275.472,32,259.312,32,240z M248,456c-92.64,0-168-75.368-168-168v-90.584C114.856,217.936,198.544,224,248,224
		s133.144-6.064,168-26.584V288C416,380.632,340.64,456,248,456z M432,279.192v-78.384c18.232,3.72,32,19.872,32,39.192
		S450.232,275.472,432,279.192z"/>
	<path style="fill:#333333;" d="M248,192c52.936,0,96-43.064,96-96S300.936,0,248,0s-96,43.064-96,96S195.064,192,248,192z
		 M182.488,50.224c3.176,3.032,7.944,6.816,14.632,10.416c-2.488,8.136-4.136,17.272-4.752,27.36h-23.96
		C169.8,74.04,174.832,61.152,182.488,50.224z M327.592,88h-23.96c-0.616-10.088-2.264-19.224-4.752-27.36
		c6.688-3.592,11.456-7.376,14.632-10.416C321.168,61.152,326.2,74.04,327.592,88z M313.512,141.776
		c-3.176-3.032-7.944-6.816-14.632-10.416c2.488-8.136,4.136-17.272,4.752-27.36h23.96
		C326.2,117.96,321.168,130.848,313.512,141.776z M256,136.256c8.792,0.544,16.144,1.984,22.32,3.84
		c-6.6,13.504-15.344,22.792-22.32,28.672V136.256z M256,120.256V104h31.64c-0.544,7.736-1.768,14.824-3.6,21.184
		C276.256,122.72,267,120.872,256,120.256z M256,88V71.744c10.976-0.616,20.224-2.456,28-4.92c1.848,6.36,3.088,13.456,3.632,21.176
		C287.632,88,256,88,256,88z M256,55.744V23.352c6.936,5.904,15.616,15.184,22.208,28.584C272.056,53.776,264.744,55.2,256,55.744z
		 M240,55.744c-8.792-0.544-16.144-1.984-22.32-3.84c6.6-13.504,15.344-22.792,22.32-28.672V55.744z M240,71.744V88h-31.64
		c0.544-7.736,1.768-14.824,3.6-21.184C219.744,69.28,229,71.128,240,71.744z M240,104v16.256c-10.976,0.616-20.224,2.456-28,4.92
		c-1.848-6.36-3.088-13.456-3.632-21.176C208.368,104,240,104,240,104z M240,136.256v32.392
		c-6.936-5.904-15.616-15.184-22.208-28.584C223.944,138.224,231.256,136.8,240,136.256z M218.984,170.472
		c-9.768-3.816-18.592-9.488-26.064-16.6c1.936-1.96,5.168-4.736,10.032-7.544C207.648,156.12,213.32,164.096,218.984,170.472z
		 M293.048,146.32c4.864,2.808,8.096,5.592,10.032,7.544c-7.472,7.112-16.296,12.776-26.064,16.6
		C282.68,164.096,288.352,156.12,293.048,146.32z M293.048,45.68c-4.704-9.792-10.368-17.768-16.032-24.144
		c9.768,3.816,18.592,9.488,26.064,16.6C301.144,40.088,297.912,42.864,293.048,45.68z M202.952,45.68
		c-4.864-2.808-8.096-5.592-10.032-7.544c7.472-7.112,16.296-12.776,26.064-16.6C213.32,27.904,207.648,35.88,202.952,45.68z
		 M192.368,104c0.616,10.088,2.264,19.224,4.752,27.36c-6.688,3.592-11.456,7.376-14.632,10.416
		c-7.656-10.928-12.688-23.816-14.08-37.776H192.368z"/>
	<rect x="360" y="88" style="fill:#333333;" width="16" height="16"/>
	<rect x="392" y="88" style="fill:#333333;" width="16" height="16"/>
	<rect x="120" y="88" style="fill:#333333;" width="16" height="16"/>
	<rect x="88" y="88" style="fill:#333333;" width="16" height="16"/>
</g>
<g>
</g>
<g>
</g>
<g>
</g>
<g>
</g>
<g>
</g>
<g>
</g>
<g>
</g>
<g>
</g>
<g>
</g>
<g>
</g>
<g>
</g>
<g>
</g>
<g>
</g>
<g>
</g>
<g>
</g>
</svg>
